<svg width="32" height="32" viewBox="0 0 32 32" fill="none" xmlns="http://www.w3.org/2000/svg">
<path d="M25.9994 16C25.9994 17.9779 25.4128 19.9112 24.314 21.5557C23.2152 23.2003 21.6535 24.482 19.8262 25.2388C17.999 25.9957 15.9883 26.1937 14.0484 25.8079C12.1086 25.422 10.3268 24.4696 8.92829 23.0711C7.52977 21.6725 6.57735 19.8908 6.1915 17.9509C5.80565 16.0111 6.00369 14.0004 6.76057 12.1732C7.51743 10.3459 8.79917 8.78415 10.4437 7.68533C12.0882 6.58652 14.0215 6.00003 15.9994 6.00003H20.1136L16.9003 9.21416L17.843 10.157L22.666 5.33336L17.8424 0.509766L16.8998 1.45256L20.1136 4.66669H15.9994C13.7579 4.66669 11.5667 5.33139 9.7029 6.57671C7.83914 7.82203 6.38651 9.59205 5.52873 11.6629C4.67093 13.7339 4.44649 16.0127 4.88379 18.2111C5.32109 20.4095 6.40049 22.4289 7.98549 24.0139C9.57047 25.5989 11.5899 26.6783 13.7883 27.1156C15.9868 27.5529 18.2655 27.3284 20.3364 26.4707C22.4074 25.6129 24.1773 24.1603 25.4227 22.2965C26.668 20.4328 27.3327 18.2416 27.3327 16H25.9994Z" fill="#323232"/>
</svg>
