<svg width="32" height="32" viewBox="0 0 32 32" fill="none" xmlns="http://www.w3.org/2000/svg">
<path d="M24.0127 7.98576C22.9627 6.93025 21.7139 6.09344 20.3384 5.52373C18.9629 4.95401 17.4881 4.66272 15.9993 4.66669H11.8851L15.0984 1.45256L14.1557 0.509766L9.33268 5.33336L14.1563 10.157L15.0989 9.21416L11.8851 6.00003H15.9993C17.9772 6.00003 19.9105 6.58652 21.5551 7.68533C23.1995 8.78415 24.4812 10.3459 25.2381 12.1732C25.9951 14.0004 26.1931 16.0111 25.8072 17.9509C25.4213 19.8908 24.469 21.6725 23.0704 23.0711C21.6719 24.4696 19.89 25.422 17.9503 25.8079C16.0104 26.1937 13.9997 25.9957 12.1725 25.2388C10.3453 24.482 8.78347 23.2003 7.68466 21.5557C6.58584 19.9112 5.99935 17.9779 5.99935 16H4.66602C4.66599 17.8639 5.12563 19.6989 6.00423 21.3427C6.88282 22.9864 8.15324 24.3881 9.70295 25.4236C11.2527 26.4591 13.0338 27.0963 14.8887 27.2789C16.7435 27.4616 18.6148 27.184 20.3367 26.4707C22.0587 25.7575 23.578 24.6304 24.7604 23.1896C25.9427 21.7488 26.7515 20.0387 27.1151 18.2107C27.4785 16.3827 27.3856 14.4932 26.8445 12.7097C26.3033 10.9261 25.3307 9.30359 24.0127 7.98576Z" fill="#323232"/>
</svg>
