<svg width="294" height="30" viewBox="0 0 294 30" fill="none" xmlns="http://www.w3.org/2000/svg">
<path d="M53.6977 23.5011C53.6977 23.2968 53.6977 23.0416 53.468 23.0416H52.115C51.9618 23.0416 51.8853 22.965 51.8853 22.7097V7.03558C51.8853 6.7803 51.9618 6.70372 52.115 6.70372H53.468C53.6977 6.70372 53.6977 6.47397 53.6977 6.26974C53.6977 6.06552 53.6977 5.81024 53.468 5.81024H35.6751C35.4453 5.81024 35.4453 6.06552 35.4453 6.26974C35.4453 6.47397 35.4453 6.70372 35.6751 6.70372H37.028C37.1812 6.70372 37.2578 6.7803 37.2578 7.03558V22.7097C37.2578 22.965 37.1812 23.0416 37.028 23.0416H35.6751C35.4453 23.0416 35.4453 23.2968 35.4453 23.5011C35.4453 23.7053 35.4453 23.935 35.6751 23.935H41.7507C41.9804 23.935 41.9804 23.7053 41.9804 23.5011C41.9804 23.2968 41.9804 23.0416 41.7507 23.0416H40.3977C40.2446 23.0416 40.168 22.965 40.168 22.7097V6.959H48.9751V22.7097C48.9751 22.965 48.8985 23.0416 48.7453 23.0416H47.3924C47.1626 23.0416 47.1626 23.2968 47.1626 23.5011C47.1626 23.7053 47.1626 23.935 47.3924 23.935H53.468C53.6977 23.935 53.6977 23.7053 53.6977 23.5011Z" fill="#323232"/>
<path d="M64.3582 11.4774C64.3582 12.907 63.7456 16.0214 60.7843 16.0214H59.7377V6.93347H60.7843C63.7456 6.93347 64.3582 10.0479 64.3582 11.4774ZM67.5747 11.4774C67.5747 7.4185 64.7411 5.81024 61.0396 5.81024H55.2448C55.015 5.81024 55.015 6.06552 55.015 6.26974C55.015 6.47397 55.015 6.70372 55.2448 6.70372H56.5977C56.7509 6.70372 56.8275 6.7803 56.8275 7.03558V22.7097C56.8275 22.965 56.7509 23.0416 56.5977 23.0416H55.2448C55.015 23.0416 55.015 23.2968 55.015 23.5011C55.015 23.7053 55.015 23.935 55.2448 23.935H61.3204C61.5502 23.935 61.5502 23.7053 61.5502 23.5011C61.5502 23.2968 61.5502 23.0416 61.3204 23.0416H59.9674C59.8143 23.0416 59.7377 22.965 59.7377 22.7097V17.1446H61.0396C64.7411 17.1446 67.5747 15.5364 67.5747 11.4774Z" fill="#323232"/>
<path d="M85.0534 14.8471C85.0534 19.3145 82.7303 22.9139 78.8756 22.9139C74.9954 22.9139 72.7489 19.3145 72.7489 14.8471C72.7489 10.3797 74.9954 6.75477 78.8756 6.75477C82.7303 6.75477 85.0534 10.3797 85.0534 14.8471ZM88.2699 14.8726C88.2699 9.71601 84.1088 5.50391 78.8756 5.50391C73.6934 5.50391 69.5324 9.71601 69.5324 14.8726C69.5324 20.0803 73.6934 24.2414 78.8756 24.2414C84.1088 24.2414 88.2699 20.0803 88.2699 14.8726Z" fill="#323232"/>
<path d="M118.23 22.4544C118.23 22.1736 118.025 22.0715 117.796 22.0715C117.54 22.0715 116.749 22.5055 116.238 22.5055C113.915 22.5055 112.741 20.6675 111.643 18.4721C110.495 16.1746 109.04 13.1367 105.338 12.5241C105.772 9.8947 107.61 6.80583 109.525 6.80583C109.448 7.03558 109.397 7.2398 109.397 7.4185C109.397 8.31197 109.984 8.72042 110.852 8.72042C111.873 8.72042 112.333 7.878 112.333 7.2398C112.333 5.63155 110.878 5.50391 110.163 5.50391C106.487 5.50391 104.674 9.38414 103.985 12.3454H103.883V7.03558C103.883 6.85688 103.934 6.70372 104.164 6.70372H105.466C105.695 6.70372 105.695 6.47397 105.695 6.26974C105.695 6.06552 105.695 5.81024 105.466 5.81024H99.39C99.1603 5.81024 99.1603 6.06552 99.1603 6.26974C99.1603 6.47397 99.1603 6.70372 99.39 6.70372H100.743C100.896 6.70372 100.973 6.7803 100.973 7.03558V12.3454H100.871C100.181 9.38414 98.3689 5.50391 94.6929 5.50391C93.9781 5.50391 92.523 5.63155 92.523 7.2398C92.523 7.878 92.9826 8.72042 94.0037 8.72042C94.8716 8.72042 95.4588 8.31197 95.4588 7.4185C95.4588 7.2398 95.4077 7.03558 95.3311 6.80583C97.2457 6.80583 99.0837 9.8947 99.5177 12.5241C95.8161 13.1367 94.3611 16.1746 93.2123 18.4721C92.1146 20.6675 90.9403 22.5055 88.6173 22.5055C88.1067 22.5055 87.3154 22.0715 87.0601 22.0715C86.8303 22.0715 86.6261 22.1736 86.6261 22.4544C86.6261 23.2968 88.5662 24.2669 89.9958 24.2669C93.4931 24.2669 94.4887 22.8884 96.0714 19.8761C97.501 17.1446 98.5732 14.26 100.973 14.26V22.7097C100.973 22.965 100.896 23.0416 100.743 23.0416H99.39C99.1603 23.0416 99.1603 23.2968 99.1603 23.5011C99.1603 23.7053 99.1603 23.935 99.39 23.935H105.466C105.695 23.935 105.695 23.7053 105.695 23.5011C105.695 23.2968 105.695 23.0416 105.466 23.0416H104.113C103.96 23.0416 103.883 22.965 103.883 22.7097V14.26C106.283 14.26 107.355 17.1446 108.784 19.8761C110.367 22.8884 111.363 24.2669 114.86 24.2669C116.289 24.2669 118.23 23.2968 118.23 22.4544Z" fill="#323232"/>
<path d="M137.784 23.5011C137.784 23.2968 137.784 23.0416 137.554 23.0416H136.201C136.048 23.0416 135.972 22.965 135.972 22.7097V7.03558C135.972 6.7803 136.048 6.70372 136.201 6.70372H137.554C137.784 6.70372 137.784 6.47397 137.784 6.26974C137.784 6.06552 137.784 5.81024 137.554 5.81024H131.479C131.249 5.81024 131.249 6.06552 131.249 6.26974C131.249 6.47397 131.249 6.70372 131.479 6.70372H132.832C132.985 6.70372 133.062 6.7803 133.062 7.03558V7.54614L123.233 20.0548V7.03558C123.233 6.7803 123.31 6.70372 123.463 6.70372H124.79C125.02 6.70372 125.02 6.47397 125.02 6.26974C125.02 6.06552 125.02 5.81024 124.79 5.81024H118.74C118.511 5.81024 118.511 6.06552 118.511 6.26974C118.511 6.47397 118.511 6.70372 118.74 6.70372H120.093C120.247 6.70372 120.323 6.7803 120.323 7.03558V22.7097C120.323 22.965 120.247 23.0416 120.093 23.0416H118.74C118.511 23.0416 118.511 23.2968 118.511 23.5011C118.511 23.7053 118.511 23.935 118.74 23.935H124.816C125.046 23.935 125.046 23.7053 125.046 23.5011C125.046 23.2968 125.046 23.0416 124.816 23.0416H123.463C123.31 23.0416 123.233 22.965 123.233 22.7097V22.2502L133.062 9.74153V22.7097C133.062 22.965 132.985 23.0416 132.832 23.0416H131.479C131.249 23.0416 131.249 23.2968 131.249 23.5011C131.249 23.7053 131.249 23.935 131.479 23.935H137.554C137.784 23.935 137.784 23.7053 137.784 23.5011Z" fill="#323232"/>
<path d="M138.643 8.41408C138.617 8.46514 138.566 8.59278 138.566 8.69489C138.566 8.92464 138.796 8.95017 139.128 8.95017C139.46 8.95017 139.613 8.84806 139.69 8.77147L140.889 7.62272C141.323 7.18875 141.911 6.93347 142.702 6.93347H145.638V22.7097C145.638 22.9394 145.561 23.016 145.408 23.016H144.055C143.825 23.016 143.825 23.2458 143.825 23.45C143.825 23.6542 143.825 23.9095 144.055 23.935H150.131C150.36 23.9095 150.36 23.6542 150.36 23.45C150.36 23.2458 150.36 23.016 150.131 23.016H148.778C148.624 23.016 148.548 22.9394 148.548 22.7097V6.93347H151.483C152.275 6.93347 152.862 7.18875 153.296 7.62272L154.496 8.77147C154.572 8.84806 154.726 8.95017 155.057 8.95017C155.389 8.95017 155.619 8.92464 155.619 8.69489C155.619 8.59278 155.568 8.46514 155.542 8.41408L154.24 5.81024H139.945L138.643 8.41408Z" fill="#323232"/>
<path d="M171.783 14.8471C171.783 19.3145 169.46 22.9139 165.606 22.9139C161.725 22.9139 159.479 19.3145 159.479 14.8471C159.479 10.3797 161.725 6.75477 165.606 6.75477C169.46 6.75477 171.783 10.3797 171.783 14.8471ZM175 14.8726C175 9.71601 170.839 5.50391 165.606 5.50391C160.423 5.50391 156.262 9.71601 156.262 14.8726C156.262 20.0803 160.423 24.2414 165.606 24.2414C170.839 24.2414 175 20.0803 175 14.8726Z" fill="#323232"/>
<circle cx="14.3594" cy="15.0001" r="14.3594" fill="#E96A41"/>
<path fill-rule="evenodd" clip-rule="evenodd" d="M15.4578 8.61719H9.71028L5.42578 21.3811H11.1733L15.4578 8.61719ZM23.2937 8.61719H17.5462L13.2617 21.3811H19.0092L23.2937 8.61719Z" fill="white"/>
<g clip-path="url(#clip0_55_1842)">
<path fill-rule="evenodd" clip-rule="evenodd" d="M230.091 3.93758H228.18V5.06944H230.038V5.77011H228.18V7.38705H230.091V8.08773H227.464V3.20996H230.091V3.93758Z" fill="#9E9E9E"/>
<path fill-rule="evenodd" clip-rule="evenodd" d="M232.055 7.38705H232.507C233.303 7.38705 233.462 6.98282 233.462 6.65943C233.462 6.30909 233.303 5.93181 232.533 5.93181H232.055V7.38705ZM232.055 5.31198H232.294C232.454 5.31198 233.064 5.31198 233.064 4.58436C233.064 3.99148 232.586 3.93758 232.294 3.93758H232.055V5.31198ZM232.055 3.20996C232.666 3.20996 232.931 3.29081 233.197 3.47945C233.409 3.6142 233.754 3.93758 233.754 4.58436C233.754 4.8269 233.701 5.17724 233.356 5.47368C233.887 5.63537 234.179 6.0935 234.179 6.60553C234.179 6.82113 234.152 7.36011 233.701 7.73739C233.303 8.06078 232.905 8.08773 232.427 8.08773H231.339V3.20996H232.055Z" fill="#9E9E9E"/>
<path fill-rule="evenodd" clip-rule="evenodd" d="M235.825 5.41978H236.17C236.78 5.41978 237.099 5.12334 237.099 4.66521C237.099 4.39572 236.993 3.91063 236.143 3.91063H235.825V5.41978ZM236.143 3.20996C236.462 3.20996 236.86 3.26386 237.205 3.47945C237.603 3.74894 237.789 4.23402 237.789 4.66521C237.789 4.9347 237.736 5.39283 237.338 5.71622C236.94 6.06655 236.515 6.0935 236.17 6.0935H235.825V8.08773H235.108V3.20996H236.143Z" fill="#9E9E9E"/>
<path fill-rule="evenodd" clip-rule="evenodd" d="M242.698 5.66211C242.698 4.58415 241.982 3.80263 240.947 3.80263C239.912 3.80263 239.195 4.58415 239.195 5.66211C239.195 6.74007 239.912 7.49464 240.947 7.49464C241.982 7.49464 242.698 6.74007 242.698 5.66211ZM243.442 5.66211C243.442 7.09041 242.38 8.16837 240.947 8.16837C239.514 8.16837 238.452 7.09041 238.452 5.66211C238.452 4.23381 239.514 3.12891 240.947 3.12891C242.38 3.12891 243.442 4.23381 243.442 5.66211Z" fill="#9E9E9E"/>
<path fill-rule="evenodd" clip-rule="evenodd" d="M247.874 3.20996V8.08773H247.131V3.93758H245.088V8.08773H244.345V3.20996H247.874Z" fill="#9E9E9E"/>
<path fill-rule="evenodd" clip-rule="evenodd" d="M251.935 3.93758H250.024V5.06944H251.882V5.77011H250.024V7.38705H251.935V8.08773H249.308V3.20996H251.935V3.93758Z" fill="#9E9E9E"/>
<path fill-rule="evenodd" clip-rule="evenodd" d="M256.394 4.79963L253.183 8.303V3.20964H253.899V6.49742L257.137 3.021V8.08741H256.394V4.79963Z" fill="#9E9E9E"/>
<path fill-rule="evenodd" clip-rule="evenodd" d="M262.1 4.34161C261.57 3.85653 261.092 3.80263 260.827 3.80263C259.765 3.80263 259.075 4.58415 259.075 5.66211C259.075 6.68617 259.818 7.49464 260.827 7.49464C261.41 7.49464 261.835 7.1982 262.1 6.92871V7.81803C261.649 8.11447 261.118 8.16837 260.8 8.16837C259.924 8.16837 259.393 7.76413 259.102 7.52159C258.544 6.98261 258.358 6.36279 258.358 5.66211C258.358 4.77279 258.703 4.15297 259.102 3.77568C259.606 3.2906 260.163 3.12891 260.827 3.12891C261.278 3.12891 261.702 3.20975 262.1 3.47924V4.34161Z" fill="#9E9E9E"/>
<path fill-rule="evenodd" clip-rule="evenodd" d="M264.038 5.15029L265.896 3.20996H266.851L264.702 5.41978L266.878 8.08773H265.896L264.171 5.93181L264.038 6.06655V8.08773H263.295V3.20996H264.038V5.15029Z" fill="#9E9E9E"/>
<path fill-rule="evenodd" clip-rule="evenodd" d="M271.018 4.79963L267.807 8.303V3.20964H268.523V6.49742L271.761 3.021V8.08741H271.018V4.79963Z" fill="#9E9E9E"/>
<path fill-rule="evenodd" clip-rule="evenodd" d="M276.274 4.79963L273.062 8.303V3.20964H273.779V6.49742L276.99 3.021V8.08741H276.274V4.79963Z" fill="#9E9E9E"/>
<path fill-rule="evenodd" clip-rule="evenodd" d="M227.808 13.3696L229.056 15.8759L230.17 13.3696H230.914L228.764 18.2204H227.994L228.658 16.7652L226.933 13.3696H227.808Z" fill="#9E9E9E"/>
<path fill-rule="evenodd" clip-rule="evenodd" d="M232.268 15.2561H234.338V13.3696H235.054V18.2204H234.338V15.9567H232.268V18.2204H231.524V13.3696H232.268V15.2561Z" fill="#9E9E9E"/>
<path fill-rule="evenodd" clip-rule="evenodd" d="M239.726 14.9324L236.488 18.4358V13.3694H237.231V16.6572L240.443 13.1538V18.2202H239.726V14.9324Z" fill="#9E9E9E"/>
<path fill-rule="evenodd" clip-rule="evenodd" d="M242.46 17.5198H242.911C243.734 17.5198 243.866 17.0886 243.866 16.7922C243.866 16.4418 243.707 16.0645 242.937 16.0645H242.46V17.5198ZM242.46 15.4447H242.699C242.884 15.4447 243.468 15.4447 243.468 14.744C243.468 14.1242 243.017 14.0434 242.725 14.0434H242.46V15.4447ZM242.46 13.3696C243.07 13.3696 243.362 13.4235 243.627 13.6122C243.84 13.7739 244.158 14.0703 244.158 14.7171C244.158 14.9596 244.105 15.3369 243.76 15.6064C244.317 15.7681 244.583 16.2262 244.583 16.7113C244.583 16.9538 244.583 17.4928 244.105 17.8701C243.707 18.1935 243.336 18.2204 242.831 18.2204H241.743V13.3696H242.46Z" fill="#9E9E9E"/>
<path fill-rule="evenodd" clip-rule="evenodd" d="M248.298 14.0434H246.388V15.2022H248.245V15.9028H246.388V17.5198H248.298V18.2204H245.645V13.3696H248.298V14.0434Z" fill="#9E9E9E"/>
<path fill-rule="evenodd" clip-rule="evenodd" d="M250.263 15.5525H250.581C251.218 15.5525 251.51 15.2291 251.51 14.7979C251.51 14.5284 251.404 14.0434 250.581 14.0434H250.263V15.5525ZM250.581 13.3696C250.873 13.3696 251.298 13.3696 251.643 13.6122C252.041 13.8817 252.227 14.3667 252.227 14.7979C252.227 15.0944 252.147 15.5255 251.749 15.8759C251.377 16.1993 250.953 16.2262 250.581 16.2262H250.263V18.2204H249.52V13.3696H250.581Z" fill="#9E9E9E"/>
<path fill-rule="evenodd" clip-rule="evenodd" d="M256.659 14.5014C256.128 14.0163 255.651 13.9624 255.359 13.9624C254.324 13.9624 253.634 14.7439 253.634 15.7949C253.634 16.819 254.35 17.6275 255.359 17.6275C255.943 17.6275 256.394 17.331 256.659 17.0615V17.9508C256.182 18.2473 255.677 18.3012 255.359 18.3012C254.483 18.3012 253.926 17.8969 253.66 17.6275C253.103 17.1154 252.891 16.4956 252.891 15.7949C252.891 14.9056 253.262 14.2858 253.66 13.9085C254.165 13.4234 254.722 13.2617 255.385 13.2617C255.81 13.2617 256.235 13.3426 256.659 13.6121V14.5014Z" fill="#9E9E9E"/>
<path fill-rule="evenodd" clip-rule="evenodd" d="M260.8 14.9324L257.562 18.4358V13.3694H258.306V16.6572L261.517 13.1538V18.2202H260.8V14.9324Z" fill="#9E9E9E"/>
<path fill-rule="evenodd" clip-rule="evenodd" d="M264.277 14.0434V18.2204H263.561V14.0434H262.473V13.3696H265.392V14.0434H264.277Z" fill="#9E9E9E"/>
<path fill-rule="evenodd" clip-rule="evenodd" d="M268.948 14.0434H267.063V15.2022H268.895V15.9028H267.063V17.5198H268.948V18.2204H266.32V13.3696H268.948V14.0434Z" fill="#9E9E9E"/>
<path fill-rule="evenodd" clip-rule="evenodd" d="M271.523 14.0434V18.2204H270.78V14.0434H269.691V13.3696H272.611V14.0434H271.523Z" fill="#9E9E9E"/>
<path fill-rule="evenodd" clip-rule="evenodd" d="M228.18 27.6526H228.632C229.428 27.6526 229.587 27.2214 229.587 26.925C229.587 26.5746 229.401 26.1973 228.658 26.1973H228.18V27.6526ZM228.18 25.5775H228.419C228.579 25.5775 229.189 25.5775 229.189 24.8768C229.189 24.257 228.711 24.1762 228.446 24.1762H228.18V25.5775ZM228.18 23.5024C228.791 23.5024 229.056 23.5563 229.322 23.745C229.534 23.9067 229.879 24.2031 229.879 24.8499C229.879 25.0924 229.826 25.4428 229.481 25.7392C230.012 25.9009 230.304 26.359 230.304 26.8441C230.304 27.0867 230.277 27.6256 229.826 28.0029C229.428 28.3263 229.03 28.3533 228.552 28.3533H227.464V23.5024H228.18Z" fill="#9E9E9E"/>
<path fill-rule="evenodd" clip-rule="evenodd" d="M236.01 24.6342C235.479 24.1491 234.975 24.0952 234.709 24.0952C233.674 24.0952 232.958 24.8767 232.958 25.9277C232.958 26.9787 233.701 27.7603 234.709 27.7603C235.293 27.7603 235.744 27.4638 236.01 27.1943V28.0837C235.532 28.3531 235.028 28.434 234.709 28.434C233.834 28.434 233.276 28.0567 233.011 27.7603C232.454 27.2482 232.241 26.6284 232.241 25.9277C232.241 25.0384 232.613 24.4186 233.011 24.0413C233.489 23.5562 234.072 23.3945 234.736 23.3945C235.187 23.3945 235.585 23.4754 236.01 23.7449V24.6342Z" fill="#9E9E9E"/>
<path fill-rule="evenodd" clip-rule="evenodd" d="M239.434 26.4669L238.717 24.823L237.974 26.4669H239.434ZM239.726 27.1676H237.682L237.152 28.3533H236.355L238.744 23.2061L241.026 28.3533H240.23L239.726 27.1676Z" fill="#9E9E9E"/>
<path fill-rule="evenodd" clip-rule="evenodd" d="M242.354 25.3889H244.398V23.5024H245.141V28.3533H244.398V26.0895H242.354V28.3533H241.611V23.5024H242.354V25.3889Z" fill="#9E9E9E"/>
<path fill-rule="evenodd" clip-rule="evenodd" d="M247.291 25.4158L249.149 23.5024H250.104L247.954 25.6853L250.13 28.3533H249.149L247.45 26.1973L247.291 26.3321V28.3533H246.574V23.5024H247.291V25.4158Z" fill="#9E9E9E"/>
<path fill-rule="evenodd" clip-rule="evenodd" d="M252.386 24.1762V28.3533H251.643V24.1762H250.555V23.5024H253.474V24.1762H252.386Z" fill="#9E9E9E"/>
<path fill-rule="evenodd" clip-rule="evenodd" d="M259.764 23.5024V28.3533H259.021V24.1762H256.951V28.3533H256.234V23.5024H259.764Z" fill="#9E9E9E"/>
<path fill-rule="evenodd" clip-rule="evenodd" d="M263.826 24.1762H261.915V25.3619H263.746V26.0356H261.915V27.6526H263.826V28.3533H261.172V23.5024H263.826V24.1762Z" fill="#9E9E9E"/>
<path fill-rule="evenodd" clip-rule="evenodd" d="M266.373 24.1762V28.3533H265.657V24.1762H264.542V23.5024H267.488V24.1762H266.373Z" fill="#9E9E9E"/>
<path fill-rule="evenodd" clip-rule="evenodd" d="M271.044 24.1762H269.134V25.3619H270.991V26.0356H269.134V27.6526H271.044V28.3533H268.417V23.5024H271.044V24.1762Z" fill="#9E9E9E"/>
<path fill-rule="evenodd" clip-rule="evenodd" d="M273.01 25.6853H273.355C273.991 25.6853 274.283 25.3619 274.283 24.9307C274.283 24.6612 274.177 24.1762 273.355 24.1762H273.01V25.6853ZM273.355 23.5024C273.646 23.5024 274.045 23.5024 274.39 23.745C274.788 24.0145 275 24.4726 275 24.9307C275 25.2272 274.92 25.6584 274.522 26.0087C274.151 26.3321 273.7 26.386 273.355 26.386H273.01V28.3533H272.293V23.5024H273.355Z" fill="#9E9E9E"/>
<path fill-rule="evenodd" clip-rule="evenodd" d="M276.752 27.6526H277.203C277.389 27.6526 278.158 27.6526 278.158 26.925C278.158 26.5477 277.999 26.1434 277.203 26.1434H276.752V27.6526ZM276.009 23.5024H278.397V24.1762H276.752V25.4428H277.23C277.575 25.4428 278.052 25.4967 278.424 25.847C278.689 26.0895 278.875 26.4668 278.875 26.898C278.875 27.3561 278.689 27.8143 278.291 28.0838C277.946 28.3263 277.522 28.3533 277.23 28.3533H276.009V23.5024Z" fill="#9E9E9E"/>
<path fill-rule="evenodd" clip-rule="evenodd" d="M280.148 23.5024L281.396 26.0087L282.51 23.5024H283.253L281.104 28.3533H280.334L280.998 26.898L279.272 23.5024H280.148Z" fill="#9E9E9E"/>
<path fill-rule="evenodd" clip-rule="evenodd" d="M284.608 25.6853H284.927C285.59 25.6853 285.882 25.3619 285.882 24.9307C285.882 24.6612 285.75 24.1762 284.927 24.1762H284.608V25.6853ZM284.927 23.5024C285.219 23.5024 285.643 23.5024 285.988 23.745C286.386 24.0145 286.572 24.4726 286.572 24.9307C286.572 25.2272 286.519 25.6584 286.095 26.0087C285.723 26.3321 285.298 26.386 284.927 26.386H284.608V28.3533H283.865V23.5024H284.927Z" fill="#9E9E9E"/>
<path fill-rule="evenodd" clip-rule="evenodd" d="M287.607 23.5024H289.996V24.1762H288.351V28.3533H287.607V23.5024Z" fill="#9E9E9E"/>
<path fill-rule="evenodd" clip-rule="evenodd" d="M293.606 24.1762H291.695V25.3619H293.553V26.0356H291.695V27.6526H293.606V28.3533H290.979V23.5024H293.606V24.1762Z" fill="#9E9E9E"/>
<path fill-rule="evenodd" clip-rule="evenodd" d="M219.634 2.40137V29H219.98V2.40137H219.634ZM211.805 24.4995V29H212.15V24.3648C212.07 24.3917 211.991 24.4187 211.937 24.4726L211.805 24.4995ZM211.805 2.40137V20.1069C211.937 19.9991 212.044 19.9182 212.15 19.8104V2.40137H211.805ZM202.834 24.1223V29H203.179V24.2839C203.073 24.23 202.94 24.1761 202.834 24.1223ZM202.834 12.5881V19.0289C202.94 19.1906 203.073 19.3523 203.179 19.487V12.2377C203.073 12.3455 202.94 12.4533 202.834 12.5881ZM202.834 2.40137V8.06065C202.94 8.03371 203.073 8.00676 203.179 7.97981V2.40137H202.834ZM195.004 2.40137V29H195.349V2.40137H195.004Z" fill="#9E9E9E"/>
<path fill-rule="evenodd" clip-rule="evenodd" d="M214.591 9.70433C214.591 9.83908 214.804 10.8092 214.857 11.8603C214.936 13.073 214.936 14.5552 214.698 15.7679C214.459 17.277 213.875 18.867 212.84 19.9719C211.566 21.3463 209.575 21.9392 207.77 21.9392C206.018 21.9392 204.187 21.3732 202.913 20.0797C201.772 18.9209 201.347 17.3578 201.347 15.714C201.347 14.7977 201.533 13.9084 201.825 13.1538C202.409 11.5908 203.789 11.0248 205.381 11.0787C206.125 11.1057 207.558 11.2404 208.115 11.8333C208.858 12.6148 208.699 14.2318 208.407 15.0941C208.354 15.2289 208.248 15.6331 207.744 15.687C207.478 15.714 206.841 15.6601 206.549 15.5792C206.39 15.4984 206.31 15.2828 206.31 15.0941C206.284 14.6899 206.523 14.2857 206.523 13.9084C206.523 13.7467 206.417 13.6119 206.231 13.558C205.833 13.4233 204.798 13.1269 204.293 13.8006C204.107 14.0701 203.895 14.9863 203.975 15.6331C204.054 16.4416 204.532 17.0345 204.983 17.3309C205.488 17.6543 206.31 17.8699 207.133 17.9238C208.062 17.9507 209.071 17.789 209.655 17.3309C210.769 16.4685 210.982 15.4445 211.114 14.0431C211.38 11.8064 210.398 9.73128 208.142 8.89586C204.771 7.62926 200.71 8.41078 199.303 12.1567C198.083 15.3906 198.534 19.4329 200.949 21.9661C203.603 24.7958 208.248 25.2808 211.698 23.9065C214.246 22.9093 215.839 21.0768 216.741 18.4897C217.272 17.0614 217.458 15.4984 217.484 13.9623C217.511 13.1808 217.458 12.4801 217.431 11.8603C217.378 11.2674 217.272 10.5667 217.192 10.1086C217.113 9.83908 216.901 9.78518 216.794 9.75823L215.202 9.4079C214.99 9.38095 214.671 9.4079 214.591 9.70433Z" fill="#FBC90B"/>
<path fill-rule="evenodd" clip-rule="evenodd" d="M255.015 2.34745V3.34456L256.262 1.99711V1L255.015 2.34745Z" fill="#9E9E9E"/>
<path fill-rule="evenodd" clip-rule="evenodd" d="M274.894 2.34745V3.34456L276.141 1.99711V1L274.894 2.34745Z" fill="#9E9E9E"/>
<path fill-rule="evenodd" clip-rule="evenodd" d="M253.872 26.116V27.1131L255.119 25.7926V24.7686L253.872 26.116Z" fill="#9E9E9E"/>
</g>
<defs>
<clipPath id="clip0_55_1842">
<rect width="99" height="28" fill="white" transform="translate(195 1)"/>
</clipPath>
</defs>
</svg>
