<svg width="202" height="226" viewBox="0 0 202 226" fill="none" xmlns="http://www.w3.org/2000/svg">
<rect x="0.5" y="0.529297" width="201" height="224.942" fill="#323232" stroke="#323232"/>
<mask id="mask0_648_1340" style="mask-type:alpha" maskUnits="userSpaceOnUse" x="1" y="1" width="200" height="224">
<rect x="1" y="1" width="200" height="224" fill="#EBEBE9"/>
</mask>
<g mask="url(#mask0_648_1340)">
<path d="M101 301.528C114.132 301.528 127.136 299.491 139.268 295.533C151.401 291.574 162.425 285.773 171.711 278.459C180.997 271.145 188.362 262.462 193.388 252.906C198.413 243.35 201 233.108 201 222.765C201 212.422 198.413 202.18 193.388 192.624C188.362 183.068 180.997 174.385 171.711 167.071C162.425 159.757 151.401 153.956 139.268 149.997C127.136 146.039 114.132 144.002 101 144.002L101 222.765L101 301.528Z" fill="#E7E4DE" stroke="#323232"/>
<path d="M101 144.002C87.8678 144.002 74.8642 146.039 62.7317 149.998C50.5991 153.956 39.5752 159.757 30.2893 167.071C21.0035 174.385 13.6375 183.068 8.61207 192.624C3.58659 202.18 1.00002 212.422 1.00001 222.765C1.00001 233.109 3.58659 243.351 8.61206 252.907C13.6375 262.463 21.0035 271.145 30.2893 278.459C39.5752 285.773 50.5991 291.575 62.7317 295.533C74.8642 299.491 87.8678 301.528 101 301.528L101 222.765L101 144.002Z" fill="#E7E4DE" stroke="#323232"/>
</g>
<path d="M125.378 174.891V144.654L100.502 161.044L125.378 174.891Z" fill="#E7E4DE" stroke="#323232"/>
<path d="M76.6214 174.891V144.654L100.502 161.044L76.6214 174.891Z" fill="#E7E4DE" stroke="#323232"/>
<path d="M101.13 160.449C105.321 160.449 109.47 159.37 113.342 157.272C117.214 155.174 120.731 152.1 123.695 148.224C126.658 144.348 129.008 139.747 130.612 134.683C132.216 129.619 133.041 124.191 133.041 118.71C133.041 113.229 132.216 107.801 130.612 102.737C129.008 97.673 126.658 93.0717 123.695 89.1958C120.731 85.32 117.214 82.2455 113.342 80.1479C109.47 78.0503 105.321 76.9707 101.13 76.9707L101.13 118.71L101.13 160.449Z" fill="#E7E4DE" stroke="#323232"/>
<path d="M101.13 76.9708C96.939 76.9708 92.7894 78.0504 88.9178 80.148C85.0462 82.2456 81.5284 85.3201 78.5652 89.1959C75.602 93.0718 73.2515 97.6731 71.6478 102.737C70.0442 107.801 69.2188 113.229 69.2188 118.71C69.2188 124.191 70.0442 129.619 71.6478 134.683C73.2515 139.747 75.602 144.348 78.5652 148.224C81.5284 152.1 85.0462 155.174 88.9178 157.272C92.7894 159.37 96.9389 160.449 101.13 160.449L101.13 118.71L101.13 76.9708Z" fill="#E7E4DE" stroke="#323232"/>
</svg>
