<svg width="10" height="16" viewBox="0 0 10 16" fill="none" xmlns="http://www.w3.org/2000/svg">
<path d="M5.09617 8.25802C2.98278 8.25802 1.22624 6.48442 1.22624 4.38574C1.22624 2.21448 2.98278 0.440125 5.09692 0.440125C7.28287 0.440125 8.96685 2.21372 8.96685 4.38574C8.96309 5.41622 8.5546 6.40302 7.83118 7.12927C7.10776 7.85552 6.12859 8.26179 5.10889 8.25877L5.09617 8.25802ZM5.09617 2.721C4.20144 2.721 3.52067 3.48079 3.52067 4.38649C3.52067 5.29068 4.20144 5.97865 5.09692 5.97865C6.02831 5.97865 6.67317 5.29068 6.67317 4.38649C6.67392 3.48004 6.02831 2.721 5.09617 2.721ZM6.63726 11.4801L8.82396 13.6159C9.25412 14.0853 9.25412 14.7733 8.82396 15.208C8.35864 15.6775 7.64121 15.6775 7.28287 15.208L5.09692 13.036L2.98278 15.208C2.76808 15.425 2.4808 15.5331 2.15762 15.5331C1.90701 15.5331 1.62049 15.4242 1.36912 15.208C0.938966 14.7733 0.938966 14.0853 1.36912 13.6151L3.59099 11.4794C2.7886 11.2393 2.01888 10.8992 1.29955 10.4671C0.761666 10.1775 0.654687 9.45403 0.94121 8.91045C1.29955 8.36764 1.94442 8.22324 2.51821 8.58537C3.29519 9.06454 4.18781 9.31805 5.09804 9.31805C6.00827 9.31805 6.90089 9.06454 7.67787 8.58537C8.25166 8.22324 8.93169 8.36764 9.25412 8.91045C9.5773 9.45403 9.43292 10.1768 8.93094 10.4671C8.25092 10.9018 7.46242 11.2276 6.63801 11.4809L6.63726 11.4801Z" fill="#323232"/>
</svg>
